<svg width="99" height="99" viewBox="0 0 99 99" fill="none" xmlns="http://www.w3.org/2000/svg">
<g clip-path="url(#clip0)">
<path d="M62.161 24.4702H36.218C29.726 24.4702 24.444 29.7522 24.444 36.2442V62.4252C24.444 68.9172 29.726 74.1992 36.218 74.1992H62.161C68.653 74.1992 73.935 68.9172 73.935 62.4252V36.2442C73.935 29.7522 68.653 24.4702 62.161 24.4702ZM49.239 65.0112C40.439 65.0112 33.28 57.9282 33.28 49.2222C33.28 40.5162 40.44 33.4332 49.239 33.4332C58.038 33.4332 65.198 40.5162 65.198 49.2222C65.198 57.9282 58.039 65.0112 49.239 65.0112ZM65.482 36.5422C63.408 36.5422 61.727 34.8612 61.727 32.7872C61.727 30.7132 63.408 29.0322 65.482 29.0322C67.556 29.0322 69.237 30.7132 69.237 32.7872C69.237 34.8612 67.556 36.5422 65.482 36.5422Z" fill="black"/>
<path d="M49.312 0C22.078 0 0 22.078 0 49.312C0 76.546 22.078 98.624 49.312 98.624C76.546 98.624 98.624 76.546 98.624 49.312C98.624 22.078 76.546 0 49.312 0ZM79.759 62.425C79.759 72.129 71.864 80.023 62.161 80.023H36.218C26.514 80.023 18.62 72.128 18.62 62.425V36.244C18.62 26.54 26.515 18.646 36.218 18.646H62.161C71.865 18.646 79.759 26.541 79.759 36.244V62.425Z" fill="black"/>
<path d="M49.239 39.2461C43.644 39.2461 39.093 43.7211 39.093 49.2221C39.093 54.7231 43.644 59.1981 49.239 59.1981C54.834 59.1981 59.385 54.7231 59.385 49.2221C59.385 43.7211 54.834 39.2461 49.239 39.2461Z" fill="black"/>
</g>
<defs>
<clipPath id="clip0">
<rect width="98.624" height="98.624" fill="white"/>
</clipPath>
</defs>
</svg>
