<svg width="99" height="99" viewBox="0 0 99 99" fill="none" xmlns="http://www.w3.org/2000/svg">
<g clip-path="url(#clip0)">
<path d="M43.188 32.4678H34.122C32.499 32.4678 31.183 33.7828 31.183 35.4058V63.2178C31.183 64.8408 32.5 66.1558 34.122 66.1558H43.188C44.811 66.1558 46.127 64.8408 46.127 63.2178V35.4058C46.127 33.7838 44.811 32.4678 43.188 32.4678Z" fill="black"/>
<path d="M64.503 32.4678H55.437C53.814 32.4678 52.498 33.7848 52.498 35.4088V50.9638C52.498 52.5888 53.814 53.9048 55.437 53.9048H64.503C66.126 53.9048 67.442 52.5878 67.442 50.9638V35.4088C67.442 33.7848 66.126 32.4678 64.503 32.4678Z" fill="black"/>
<path d="M49.312 0C22.078 0 0 22.078 0 49.312C0 76.546 22.078 98.624 49.312 98.624C76.546 98.624 98.624 76.546 98.624 49.312C98.624 22.078 76.546 0 49.312 0ZM73.812 67.687C73.812 71.068 71.07 73.812 67.687 73.812H30.938C27.557 73.812 24.813 71.07 24.813 67.687V30.938C24.813 27.557 27.555 24.813 30.938 24.813H67.687C71.068 24.813 73.812 27.555 73.812 30.938V67.687Z" fill="black"/>
</g>
<defs>
<clipPath id="clip0">
<rect width="98.624" height="98.624" fill="white"/>
</clipPath>
</defs>
</svg>
