<svg width="99" height="99" viewBox="0 0 99 99" fill="none" xmlns="http://www.w3.org/2000/svg">
<g clip-path="url(#clip0)">
<path d="M51.32 20.8818C37.58 20.8818 26.406 32.0548 26.401 45.7888C26.399 50.4958 27.716 55.0788 30.209 59.0448L30.801 59.9868L28.285 69.1788L37.712 66.7058L38.622 67.2458C42.446 69.5158 46.83 70.7158 51.3 70.7178H51.31C65.039 70.7178 76.213 59.5438 76.219 45.8088C76.222 39.1528 73.633 32.8948 68.93 28.1868C64.227 23.4778 57.973 20.8838 51.32 20.8818ZM65.972 56.4978C65.348 58.2468 62.356 59.8438 60.918 60.0578C59.628 60.2508 57.995 60.3308 56.202 59.7608C55.115 59.4158 53.72 58.9548 51.933 58.1838C44.42 54.9408 39.514 47.3768 39.14 46.8778C38.766 46.3778 36.082 42.8178 36.082 39.1318C36.082 35.4458 38.016 33.6348 38.703 32.8848C39.389 32.1348 40.201 31.9478 40.7 31.9478C41.199 31.9478 41.699 31.9528 42.135 31.9738C42.595 31.9968 43.212 31.7998 43.82 33.2588C44.444 34.7588 45.942 38.4438 46.129 38.8188C46.316 39.1938 46.441 39.6308 46.191 40.1308C45.941 40.6298 45.817 40.9428 45.442 41.3798C45.067 41.8168 44.656 42.3558 44.319 42.6918C43.944 43.0648 43.554 43.4708 43.991 44.2198C44.428 44.9698 45.931 47.4218 48.157 49.4068C51.017 51.9578 53.43 52.7488 54.179 53.1238C54.928 53.4988 55.365 53.4358 55.801 52.9368C56.238 52.4368 57.673 50.7498 58.172 50.0008C58.671 49.2518 59.17 49.3758 59.857 49.6258C60.543 49.8758 64.225 51.6868 64.974 52.0618C65.723 52.4368 66.222 52.6238 66.409 52.9368C66.596 53.2488 66.596 54.7488 65.972 56.4978Z" fill="black"/>
<path d="M49.312 0C22.078 0 0 22.078 0 49.312C0 76.546 22.078 98.624 49.312 98.624C76.546 98.624 98.624 76.546 98.624 49.312C98.624 22.078 76.546 0 49.312 0ZM51.31 75.779C51.309 75.779 51.311 75.779 51.31 75.779H51.298C46.282 75.777 41.354 74.519 36.977 72.131L21.09 76.299L25.342 60.769C22.719 56.224 21.339 51.068 21.342 45.787C21.347 29.263 34.792 15.82 51.31 15.82C59.327 15.823 66.852 18.944 72.51 24.609C78.168 30.273 81.283 37.803 81.279 45.811C81.272 62.335 67.827 75.779 51.31 75.779Z" fill="black"/>
</g>
<defs>
<clipPath id="clip0">
<rect width="98.624" height="98.624" fill="white"/>
</clipPath>
</defs>
</svg>
